<svg width="308" height="307" viewBox="0 0 308 307" fill="none" xmlns="http://www.w3.org/2000/svg">
<path d="M155.793 246.398C157.101 246.398 158.103 248.626 158.345 252.05C158.571 255.167 158.748 258.978 158.748 260.529C158.748 262.079 160.912 264.437 163.561 265.778C166.209 267.102 170.037 270.735 172.088 273.852C174.123 276.969 175.77 281.507 175.754 283.946C175.722 286.384 174.43 290.922 172.879 294.023C171.329 297.123 167.501 301.096 164.401 302.857C161.3 304.601 156.568 306.087 153.904 306.135C151.239 306.2 146.507 304.568 143.407 302.517C140.306 300.466 136.381 296.267 134.702 293.183C132.554 289.259 131.909 285.786 132.538 281.572C133.039 278.261 135.332 273.367 137.625 270.67C139.935 267.957 143.955 265.422 146.636 264.97C151.287 264.195 151.465 263.855 151.206 256.362C151.061 252.066 151.546 248.062 152.288 247.48C153.031 246.882 154.598 246.398 155.793 246.398ZM145.022 2.91141C150.093 0.343748 153.759 -0.464197 157.134 0.246368C159.799 0.795479 163.609 2.26565 165.612 3.50906C167.614 4.75257 170.731 8.12807 172.556 11.0188C174.865 14.6686 175.705 18.2373 175.318 22.7268C175.011 26.2797 173.51 31.1896 171.992 33.6282C170.49 36.0667 166.355 39.3444 162.819 40.8948C156.407 43.7048 156.374 43.7537 157.343 50.9886C157.86 54.9771 159.136 58.7883 160.137 59.4348C161.154 60.097 163.803 60.6302 166.016 60.6302C168.245 60.6463 174.043 61.8247 178.936 63.262C183.829 64.6993 191.452 67.7199 195.893 69.9485C200.334 72.1933 206.697 76.1011 210.024 78.6526C215.595 82.9159 216.37 83.0935 219.713 80.9134C221.716 79.6214 224.558 77.6195 226.028 76.4729C228.272 74.7288 228.433 73.388 226.98 67.9456C226.043 64.3927 225.736 59.4828 226.318 57.0442C226.899 54.6057 229.209 50.4236 231.421 47.7591C233.682 45.0459 238.14 42.2196 241.515 41.3313C245.472 40.2978 249.671 40.2978 253.627 41.3313C257.003 42.2196 261.459 45.046 263.72 47.7591C265.949 50.4237 268.194 55.3327 268.727 58.6595C269.389 62.713 268.824 66.5733 267.015 70.3684C265.529 73.4691 262.363 77.4096 259.99 79.1214C257.599 80.8331 253.11 82.5443 249.994 82.9319C246.877 83.3195 241.806 82.5287 238.689 81.1721C233.117 78.7336 232.955 78.7818 222.458 88.9397L229.467 99.4368C233.311 105.218 238.058 114.117 239.996 119.22C241.934 124.323 244.082 132.98 244.744 138.454C245.859 147.563 246.295 148.435 249.994 148.694C252.222 148.855 256.761 149.469 260.087 150.05C265.981 151.084 266.143 150.986 266.143 146.271C266.143 143.041 267.758 139.811 270.988 136.581C273.652 133.917 278.191 131.284 281.081 130.735C283.972 130.186 288.332 130.186 290.771 130.735C293.209 131.284 297.392 133.545 300.057 135.774C302.77 138.035 305.596 142.476 306.468 145.867C307.34 149.194 307.599 153.732 307.066 155.96C306.533 158.173 304.368 162.356 302.269 165.246C299.637 168.864 296.31 171.028 291.578 172.207C286.669 173.435 283.325 173.402 279.869 172.142C277.205 171.157 273.007 168.396 270.552 165.99C268.081 163.583 266.111 160.531 266.16 159.191C266.192 157.85 265.901 156.412 265.481 155.96C265.077 155.508 261.055 155.508 256.566 155.96C252.077 156.412 248.396 156.219 248.395 155.557C248.379 154.895 247.651 154.7 246.763 155.153C245.875 155.605 245.133 158.319 245.117 161.209C245.1 164.1 243.953 170.819 242.58 176.148C241.191 181.477 237.574 190.197 234.522 195.527C231.47 200.856 227.174 207.575 220.924 215.714L227.787 221.301C234.134 226.453 235.265 226.809 242.726 225.937C248.523 225.259 252.286 225.726 256.049 227.616C258.94 229.069 262.751 232.606 264.528 235.496C266.417 238.565 267.742 243.587 267.758 247.609C267.758 253.099 266.708 255.619 262.509 260.205C259.441 263.564 254.919 266.471 251.609 267.214C248.298 267.957 243.356 267.763 239.674 266.73C236.218 265.761 231.987 263.161 230.259 260.932C228.547 258.719 226.722 253.262 226.238 248.821C225.721 244.153 226.108 239.211 227.174 237.112C228.66 234.14 228.401 232.59 225.769 228.633C223.992 225.969 220.908 223.175 218.906 222.432C215.999 221.334 213.156 222.48 204.775 228.116C199.01 231.992 189.918 236.595 184.588 238.339C179.259 240.083 170.538 242.118 165.208 242.861C159.879 243.604 150.432 243.637 144.214 242.926C137.997 242.215 127.822 239.809 121.605 237.58C115.387 235.352 106.312 230.603 101.418 227.018C96.5271 223.434 92.3615 220.513 92.1322 220.527C91.9061 220.543 88.9507 223.288 85.5755 226.615C80.004 232.089 79.551 233.139 80.9076 237.516C81.7311 240.181 81.9903 244.896 81.4574 248.013C80.8921 251.307 78.2918 255.878 75.2074 258.994C72.3005 261.917 67.7461 264.727 65.0814 265.228C62.4167 265.745 58.2338 265.712 55.7953 265.163C53.3567 264.614 49.1255 262.159 46.4125 259.721C43.6832 257.282 40.744 253.099 39.8558 250.435C38.79 247.189 38.8225 243.329 39.9691 238.727C41.0188 234.463 43.4892 230.329 46.5091 227.825C49.1738 225.613 53.7121 223.352 56.6029 222.835C59.8166 222.254 64.3546 222.9 74.7709 227.148L86.0755 214.454L80.6654 207.412C77.6939 203.537 73.9633 197.82 72.3646 194.719C70.7819 191.618 67.9401 183.979 66.0345 177.762C64.1451 171.545 62.6103 164.1 62.6263 161.209C62.6586 156.332 62.2553 155.928 56.8617 155.557C53.6802 155.331 50.7732 155.702 50.4017 156.365C50.0462 157.027 48.2854 157.398 46.5091 157.172C44.2484 156.898 42.4397 158.431 40.4535 162.307C38.9031 165.343 35.5758 169.349 33.0726 171.19C29.9236 173.483 26.0478 174.532 20.638 174.533C13.8231 174.533 11.9982 173.773 7.00816 168.88C3.43913 165.392 0.854727 161.064 0.257184 157.575C-0.27575 154.475 0.0475993 149.371 0.968122 146.271C1.90481 143.17 4.71496 139.229 7.21812 137.533C9.7375 135.838 13.9687 133.852 16.6332 133.109C19.4109 132.35 24.0616 132.463 27.5336 133.367C30.8604 134.256 35.2536 136.969 37.2884 139.408C39.3232 141.846 41.3251 144.705 41.7289 145.754C42.1328 146.804 46.8332 148.144 61.8519 149.856L63.0628 139.181C63.725 133.303 66.2928 123.597 68.7474 117.606C71.2021 111.614 75.9338 102.893 79.2445 98.2259C85.1067 89.9735 85.1872 89.6507 82.4418 86.1302C80.8914 84.1438 77.7909 80.9459 75.5785 79.0403C71.8319 75.8267 71.2508 75.7462 67.5043 78.0393C64.565 79.8481 61.7219 80.1873 57.0062 79.2991C53.0337 78.5562 48.6253 76.1335 45.557 73.0169C42.4401 69.8677 40.1303 65.4907 39.4359 61.4856C38.6285 56.7379 39.0969 53.5566 41.2123 49.471C42.7949 46.4349 46.1378 42.4292 48.641 40.5882C51.7739 38.3111 55.6662 37.262 61.0277 37.262C67.1484 37.262 69.797 38.1499 73.1722 41.2991C75.5623 43.5277 78.518 47.3391 79.7777 49.7776C81.0211 52.2162 82.0545 56.2209 82.0707 58.6595C82.0868 61.0979 81.0695 64.5538 79.8099 66.3304C78.5666 68.1065 77.8076 70.2866 78.1302 71.1751C78.4694 72.0633 81.6508 75.1482 91.7279 83.2874L97.7845 78.6526C101.111 76.101 107.474 72.1932 111.915 69.9485C116.357 67.7199 123.979 64.6993 128.872 63.262C133.766 61.8248 139.934 60.6463 142.599 60.6302C145.264 60.6302 148.252 60.097 149.237 59.4348C150.206 58.7887 151.303 54.8805 151.659 50.7464C152.272 43.366 152.192 43.2047 146.636 41.5413C143.536 40.6046 139.354 37.6331 137.351 34.9202C135.348 32.2071 133.313 27.2646 132.828 23.9378C132.231 19.836 132.893 16.057 134.847 12.2298C136.72 8.59613 140.338 5.26924 145.022 2.91141ZM168.262 170.107C168.569 169.429 168.375 168.977 167.81 169.09C167.244 169.187 163.724 170.463 159.978 171.916C154.261 174.113 152.291 174.209 147.866 172.53C142.601 170.527 142.503 170.575 130.44 182.219C123.754 188.663 114.129 197.561 109.042 202.002C103.955 206.443 99.7724 210.804 99.7562 211.693C99.7247 212.581 102.082 214.551 104.989 216.069C107.895 217.603 113.903 220.897 118.344 223.416C122.785 225.936 130.231 228.875 134.898 229.941C139.565 231.007 145.201 231.879 147.413 231.879H151.451C151.451 176.422 151.58 175.356 154.681 175.356C157.765 175.356 157.926 176.568 158.314 202.664C158.54 217.699 159.09 230.424 159.526 230.958C159.978 231.491 165.791 230.797 172.445 229.441C179.486 228.003 188.627 224.644 194.247 221.447C199.577 218.427 205.39 214.809 207.166 213.404L210.397 210.885C205.39 207.994 195.781 199.095 185.833 189.228C175.869 179.377 167.955 170.769 168.262 170.107ZM131.813 156.783C95.0889 156.444 82.25 156.671 79.5853 157.059L74.7406 157.769C76.7593 172.029 79.8115 181.25 82.7992 187.468C85.803 193.686 89.5817 200.485 91.1966 202.584L94.1205 206.395C126.096 175.227 135.511 167.281 136.916 167.636C138.693 168.088 138.337 166.716 135.576 162.517L131.813 156.783ZM232.602 157.349C231.745 156.025 223.331 155.67 203.323 156.138C175.804 156.768 175.223 156.849 173.447 160.547C171.767 164.051 173.108 165.764 192.632 185.03C212.674 204.78 213.772 205.604 216.711 203.052C218.391 201.582 222.137 195.3 225.028 189.083C227.918 182.866 231.084 173.596 232.053 168.492C233.022 163.373 233.264 158.366 232.602 157.349ZM215.677 101.682C213.965 100.342 212.286 100.535 208.911 102.505C206.44 103.959 200.319 109.934 195.296 115.796C190.274 121.675 183.265 129.798 179.712 133.884C174.755 139.552 173.544 142.056 174.464 144.591C175.627 147.756 176.92 147.902 204.744 147.902C231.1 147.902 233.877 148.16 234.475 150.728C234.846 152.278 234.799 150.647 234.395 147.094C233.991 143.541 233.378 138.454 233.038 135.789C232.699 133.125 231.73 129.12 230.89 126.908C230.05 124.679 229.34 122.144 229.308 121.255C229.276 120.367 228.581 119.268 227.757 118.832C226.933 118.38 224.398 114.747 222.105 110.758C219.828 106.753 216.921 102.683 215.677 101.682ZM90.4222 101.569C88.9849 104.395 86.1742 109.611 84.1878 113.164C82.2015 116.717 79.7472 121.449 78.7298 123.661C77.7286 125.874 76.0486 131.493 75.015 136.128C73.7661 141.748 73.6805 145.086 74.7572 146.141C75.678 147.045 88.5485 147.821 104.633 147.934L132.895 148.144C136.641 137.405 136.593 136.58 134.51 136.58C133.17 136.58 132.087 135.854 132.087 134.966C132.087 134.078 130.99 133.351 129.665 133.351C128.325 133.351 127.065 132.673 126.839 131.849C126.613 131.025 118.925 122.708 109.752 113.39L93.0707 96.4173L90.4222 101.569ZM148.851 70.8362C147.85 70.4809 146.46 70.8686 145.766 71.6761C145.071 72.4997 140.081 74.1149 134.671 75.2776C129.245 76.4404 124.271 77.2633 123.609 77.1018C122.947 76.9567 122.398 77.5546 122.398 78.4427C122.398 79.3308 121.3 80.0578 119.959 80.0579C118.619 80.0579 114.274 82.4152 110.318 85.3059C106.361 88.1965 103.099 91.6362 103.067 92.9768C103.034 94.3172 110.996 103.394 120.783 113.164C130.569 122.935 138.564 131.833 138.564 132.948C138.548 134.481 140.017 134.352 144.603 132.447L150.66 129.944C150.66 80.5294 150.094 71.2734 148.851 70.8362ZM160.349 70.3675C158.347 70.3676 157.927 73.4693 157.927 88.5364C157.911 98.5329 158.362 112.163 158.911 118.817C159.751 128.991 160.462 131.22 163.353 132.705C166.47 134.32 168.763 132.559 186.995 114.536C198.09 103.571 208.087 94.5921 209.202 94.5921C210.316 94.592 210.881 93.6877 210.461 92.5735C210.041 91.4592 206.682 89.1009 203 87.3245C199.319 85.5483 195.491 83.1588 194.49 82.012C193.472 80.8493 191.017 79.9442 189.015 79.9925C187.013 80.0248 185.381 79.3308 185.381 78.4427C185.381 77.5544 184.831 76.9409 184.169 77.0862C183.507 77.2312 180.955 76.5043 178.517 75.471C176.078 74.4375 171.525 73.598 168.424 73.5979C165.323 73.5979 162.772 72.8709 162.772 71.9827C162.772 71.0945 161.689 70.3675 160.349 70.3675Z" fill="#E3D3A1"/>
</svg>
